<?xml version="1.0" encoding="utf-8"?>
<!-- Generator: Adobe Illustrator 19.2.1, SVG Export Plug-In . SVG Version: 6.00 Build 0)  -->
<svg version="1.1" id="layer" xmlns="http://www.w3.org/2000/svg" xmlns:xlink="http://www.w3.org/1999/xlink" x="0px" y="0px"
	 viewBox="0 0 652 652" style="enable-background:new 0 0 652 652;" xml:space="preserve">
<path d="M620.2,326.6c0-1.6-0.7-3-1.3-4.3c-0.7-1-2.1-2.1-2.1-3.7l0.9-2.7c0-2.1-1.6-4.3-2.3-6.1l-2.4-7.3c-1-2.4-2.3-5-3.6-7.1
	c-2.1-3.2-5.8-3.7-7.4-5l-1.6-3.4c-4-2.4-8.4-5.1-12.9-6.9c-1.3-0.3-3.4-0.7-4.7-1.3c-0.9-0.3-2.7-1-2.7-1c-0.9-0.2-1.3-0.7-2.1-1.3
	c-1.6-1.3-3.4-2.7-6.4-2.7c-1.6,0-2.7,0.6-4,0.9c-0.9,0.2-2,0.2-2.4,0.2l-3-0.6c-1-0.6-1-0.6-2.1-0.6c-2,0-5.3,0.3-7.1,1.3
	c-0.7,0.3-1.7,2-2.3,2.2c0,0-3-0.6-4.4-0.6c-1.7,0.2-5.7,0.9-5.7,0.9c-4.9,2.5-10.6,6.7-15.1,10.2c-1.2,0.9-0.3,2.8-1.3,3.6
	c-0.9,0.8-3.6,0.5-4.3,1c-3.4,3.2-6.4,8.1-8.1,12c0,0-1.8,8.2-2.2,8.8c-0.7,1-1.5,2.7-1.6,3.4c0,0-1.7,3-2.7,4.4
	c-1.3,2.7-1.6,4.7-2,5.8l0.2,5c0,1.7,0.9,2.7,0.9,2.7c0,1.7-1,3.2-1.3,3.9c-0.3,1.4-0.7,2.4-0.7,4c0,1.3,3,16.3,3,16.3
	c1.6,5.1,4.3,8.8,6.7,12.7c1.6,2.8,3.2,5.4,4.6,8.1c0.3,0.7,0.9,2,1,3.6c0.6,2.3,0.9,4.6,2.3,6.4c3.9,3.6,8.1,7,14.3,9.4l3.9,0.6
	c0.9,0,4.4,0.1,4.7,0.5c0,0,0.7,1.6,1.7,2.5c1.7,1.6,4.6,3.6,4.6,3.6c4.6,0.9,10.3,1,12,1c1.3,0,2.4-0.3,4-0.7
	c1-0.7,2.4-0.6,3.4-0.7c1.4-0.2,2.9-1.5,6,0.3c0.6,0.3,1.4,0.3,2,0.3c3.7,0,10-3.6,21.6-9.7c0.3,0,1.3-1,1.4-1l2.7-0.9
	c2.4-1,6.2-2.1,8.4-5.4c5-8.4,6.4-11.1,6.4-18.6c0-3.4-0.9-5.7-2.4-7.6c-2.8-3.4-7.3-2.8-11.3-2.8h-1.3c-0.6,0-4.3,0-5.3,2.3
	c0,0-3.7,4.4-6,6.9c-2.1,2.7-2.1,3.6-3.7,5.4c-0.9,0.9-2.8,2-3.6,3c-0.7,1.4-3,3.3-3,3.3c-1.6,1.3-3.9,0.7-6,0.9
	c-1,0.2-2.1,0.2-3,0.3c-0.7,0.3-2.7,1-3.6,1.4c-0.9,0.3-3,0-3.2,0c-0.3,0-1-0.2-2-0.9c-1.7-1.3-2.7-1.6-4.6-1.6
	c-2.1,0-5.4-0.7-5.4-0.7c-1-1.3-2.4-2.7-4.3-4.3c-1.4-1.3-3.8-0.5-5.7-1c-5.3-2.4-6.9-8.6-6.9-8.6s-0.7-2.7-0.7-3.6
	c-0.2-1.3-1-4.6-1-4.6c-0.7-2-1.3-3-1.3-6c0,0,4.3-2.4,6.2-2.4c0.3,0,1.3,0.2,2.1,0.3c1,0.2,2.1,0.7,3.4,0.7c1.3,0,2.4-0.7,3.6-1
	c0.7-0.2,2-0.6,2-0.6c1.3,0,2.4,0,3.4,0.6c0.7,0.3,1.7,1,3,1s2.1-0.7,4.4-1.6c1.3-1,3.7-1.6,4.4-1.6c0,0,7.4,0.6,10.4,1
	c6.6,0.7,9.7,1,11,1c1,0,2.1-0.3,5-1c1.6-0.6,3.9-1,3.9-1c1.3,0,3.2,0.3,3.9,0.6c1.4,0.7,2.8,1,3.6,1c5.3,0,13.3-4.6,14-11.3
	c0.2-2.1,2.1-4.2,3-6.9C621,329,620.2,327.7,620.2,326.6L620.2,326.6z M504.2,315.4c0-1.7-0.3-3.3-1.3-5.1c-0.2-1.3-0.7-2.4-0.7-3.4
	c-0.2-0.7-0.2-2-0.2-3c0.2-2.3,0.2-5-0.2-7.6c-0.9-2.3-2.1-4-3.2-5.3c-0.6-0.3-1-0.9-1-1.3c-0.6-0.7-1-1.4-1.6-2.3
	c-2.4-4.7-5.7-10.1-9.2-10.3c-1.6,0-2.8,0.7-3.7,1.3l-2.1-0.4c-1.7-1-2.7-1.7-3.7-1.7c-2,0-8.8,1.7-11.3,2.6l-3.9,2.8
	c-0.6,0.3-0.9,2.4-0.9,2.4s-1.6-0.5-2-0.5c-1.6,0.3-5.4,0.3-6.9,2.3c0,0-1.7,2-2.4,2.8c-3,3-3.6,4-5.8,3.9c-1.4,0-1.7-0.2-2.7-4.6
	c-0.7-4.3-2.1-11.3-10.7-11.4c-2-0.2-4-0.2-5.1-0.2l-3.6,2c-1.3,0-2.8-3.4-5.1-2.3l-13.8,0.9c-2.1-0.3-4.4-1.3-5.9-1.2
	c-2.1,0.1-3,1.5-3.8,1.6c-5.7,1.4-9.2,7-9.4,11.4c-0.2,3.7,2.7,7.3,4.4,9.2c1.4,1.6,6.2,6.4,11.7,6.6c1.6,0,3-0.7,5.3-1.7
	c0.7-0.4,1.7-1,1.7-1s6.2,3,9,5.3c2.1,4,1.7,8.8,1.6,13.7c-0.2,1.6-0.2,3.4-0.2,5.3l-0.2,11.4v11.1l-0.6,4c-0.6,1.7-0.7,4.3-0.6,6.3
	c0,1.6,0.2,4.3,0.7,6.6c0.2,0.7,0.6,2.3,0.6,2.7c0,0-1.3,8.1-2.1,10.7c-0.7,1.4-2.8,2.4-4.6,3.4c-0.7,0.3-1.7,1-1.7,1
	c0.2-0.2-2.8-0.9-2.8-0.9c-2.1-0.6-3.2-0.7-3.9-0.7c-2.3-0.2-10.3,1.3-10.6,10.3c0,3.2,0.7,5.7,2.3,7.1c0,0,3.7,5.3,6.4,5.3
	c1.3,0,2.3-0.6,5-1.6c0.9-0.6,1.6,0.2,1.6,0.2s2-0.7,2.4-0.6c1.4,1,3,1.3,4.3,1.3c1.3,0,3,0.3,4.7-0.2c0.7-0.2,3.4-1.5,3.4-1.5
	c2.5,1.5,4.7,2.8,6,2.9h12c1.6,0,3.2,0,5.4-1c0.9-0.3,1-1.5,1.4-1.6l3,1.3c1.2,0.6,2.6,0.9,3.9,1c1.6,0,3-0.6,4.3-0.9l2.7-0.3
	c0.6-0.2,2-0.7,3-0.6h2.7c5.3-0.3,9.2-8.1,9.4-11.3c0-2.7-1.4-5.3-3.2-7c-1.4-2-3.7-3-5.8-3.2c-1.4,0-2.7,0.3-3.9,0.7
	c-0.7,0.2-3.2,0.6-3.2,0.6c-2.1-0.2-8.4-0.2-11.3-1c-3.2-1.3-7.1-4.6-9-6.6c-1-2.3-0.3-8,0-11.1c0-1.3,0.3-2.1,0.3-3.2l0.2-3.3
	c0.3-4.3,0.6-12.2,0.6-12.2s0-2.4-0.2-3c0-0.7-0.3-1.4-0.3-1.7c0-0.7-1-5.7,0.9-6.9c1.3-1,0.9-2.8,2.3-3.9c4.4-3.2,6.2-5.1,8.3-9.7
	c0.9-2,2.1-5,2.1-5c1-1.3,5.8-4.3,8.8-6.9c1.4-2,2-2.1,3.4-3c1.6-1.4,3.6-1.6,3.6-1.6l0.7,1.7c0,0.9-0.3,1.7-0.7,2.4
	c-1.3,3-1.6,5-1.6,6.6c-0.2,4,6,12.2,9.6,14.3c1.6,0.9,3.4,1.4,5,1.6l0.7,0.4c1.3,1,2.3,2.1,4,2.1c1.4,0,3.2-0.9,4.4-2.4
	c1.3-1.4,2.7,0,3.4-1.4c0,0,1.6-2.1,3.2-2.8c1.6-0.9,2.8-1.7,4-3.4C503.5,320.4,504.2,317.4,504.2,315.4L504.2,315.4z M390.3,391.3
	c0-10.7-8.7-11.4-14-11.8c-1.6-0.2-3.4-0.2-3.9-0.6c-1.7-0.7-3.2-2.1-3.2-3.4c0,0,0.6-2.7,0.9-4c0.9-3.6,0.3-5.3,0.3-6.4
	c0-1.4,0.6-3-0.3-5.3c-0.2-0.7-0.3-1.4-0.6-1.7c0,0,0.3-1.4,0.6-2.4c0.3-1,0.6-2.1,0.6-3.2c0-2-0.7-3.9-1.4-5.7
	c-0.2-0.6-0.3-1-0.6-1.4l-0.2-2.8c0.2-0.7,0.2-0.7,0.2-2.1c0-1-0.2-3.6,0.3-4.6c0.3-0.6,0.6-1.3,0.9-1.7c0.9-1.4,2-3.4,2-5
	c0,0,1.3-18.4,1.3-20V308c0.2-3.2,0.2-6.9-0.2-9.6v0.7c0-1.7-0.7-3-1.3-3.9l-0.2-2.1c-0.2-3.6-0.2-7.6-3.2-9.4
	c-3.4-2.1-9.2-2.7-10.6-2.7c-1,0-2.1,0.2-3.4,0.3c-0.9,0-1.6-0.2-2.1-0.2c0,0-1.4-0.3-2.3-0.7c-2.3-1.3-3.7-2-5.1-2
	c-1.4,0-1.7,1.5-3,2.2c-0.7,0.2-3.2-0.6-3.4-0.6l-3-0.7c-2-0.6-3-0.9-4-0.9c-5,0-16.4,12.4-16.4,17.8c0,2.1,0.9,4,2.7,5.8
	c3.3,3.4,8.8,5,11.4,5c2,0,3.9-0.9,4.4-0.9l4.4,2.5l1.6,0.3c1,0.3,1.6,0.6,2.7,0.6c0.6,0.2,2.3,0.3,2.7,0.6l1.3,2.4
	c0,0,0.2,2-2.3,3.4l-1.3,0.7l-0.6,1.4c-0.7,3,0.7,5.7,1.7,7.4c0.3,0.6,1,2.3,1,2.7l-0.9,4c-0.6,2.1-1,4.4-0.9,6.7l1.4,3.6
	c0.3,0.7,1,2.1,1,2.1s-2.8,9.9-5,13.7c-2,3.6-4.6,6.7-7.3,10.1c-1.6,2-3.4,4-5,6.2c-1.3,2-4.6,6.6-6.9,6.6h-0.7
	c-6.6,0-8.8-0.3-8.8-0.3c-3.7-1.7-6.2-4.7-9.2-8.7l-0.2-0.2c-1.7-2.3-1.4-9.7-1.3-13.1c0-1.3,0.2-2.8,0.3-4.4
	c0.6-4.3,0.7-6.7,0.2-8.4v-0.3c-0.7-1.7-1.6-2.8-2.3-3.6c-0.6-0.6-0.6-0.6-0.6-1.3c0-0.9,2-8.8,2-8.8c0.2,0,2-2.3,2.1-2.4l0.9-2.8
	c0.6-2-1-3.6-2.4-5.4c-0.7-0.9-1.3-2-1.6-2.7l-0.3-1.4v-4.3c0-3.2,0.6-4.3,1.3-5.8c0.9-1.6,2-3.6,2-7.3c0-2.8-0.6-7.6-2.1-9.7
	c-0.7-1-1.4-1.3-2.3-2.1c-4.6-5.1-10-8.3-16.3-8.3c-1,0-2.1,0.3-4,0.7c-0.7,0.2-1.5,1.7-2,1.7l-4-2c-2.4-0.7-3.7-1-4.7-1
	c-1.6,0-11.4,3.6-11.4,9.2c0,2-0.2,4.7-0.6,6.9c-0.2,1.7-0.2,2.7-0.2,3.2c0,2.3,1.3,4.7,3.7,7.3c2.4,2.7,7,5.7,10.4,5.7
	c1.7,0,2.8-0.7,3.6-1.3c0.9-0.6,3.2,4.7,3.2,15.7l0.3,5.7c0.2,4,0.6,7.4,0.6,7.4c-0.2,0.2-0.3,1.3-0.6,1.4c-0.3,0.9-0.6,1.7-0.6,3.2
	v20.8c0,2.3,1.4,3.6,1.4,5l0.9,2.7c0.3,1.6,1,4,1,4c0,0.2,12.4,29,25,29c1,0,2.4-0.2,3.6-0.3c0.6-0.2,1.4-1.6,1.7-1.6
	c0,0,1.3,1.7,2,2c1.6,0.6,3,1,4.3,1c1.4,0,2.8-0.6,4.4-1c0.7-0.2,1.6-0.7,2-0.7l2.3,0.6c1.4,0.3,2.7,0.7,3.7,0.7
	c1.6,0,2.4,0,3.7-0.6l0.6-0.6c1.4-1,3.2-2.1,5-3.2c2.1-1.4,5.1-3.7,5.1-3.7c1.3-0.9,3.9-2.1,4.7-3.2c0.6-0.7,0.9-0.3,0.9-0.3
	s0.7,0.9,0.9,1.7c0.3,0.9,0.6,1.6,0.9,2.1l0.6,0.9l0.7,0.3c1,0.6,4.3,1,5.3,1.7c4.4,2.3,5.8,2.8,6.7,2.8c1,0,2.4-0.3,2.8-0.6
	l3.6,1.3c3.2,1,4.4,1.6,5.4,1.6c3,0,3.7-1.5,6.7-5.2l2-0.2c0,0,0.7-1.4,1.3-1.4c2.1,0,3.4-1,4-2C389.5,395.8,390.3,394,390.3,391.3
	L390.3,391.3z M131.9,378.1c-0.2-0.1-0.4-0.2-0.5-0.3c-1.7-0.9-2.3,0.5-3.8-0.3c-2-0.9-2.3-0.3-3.4-0.1c-2.5,0.5-1.2,0.9-2.8,1.9
	c-1.8,1-2.1,3.7-2.1,3.7s-3.5,2.1-3.7-1.6l-1-2.8c-0.6-2-2.7-3.7-1.6-4.4l2.1-3.9c0.2-1.4,1-2.4,0.7-3.9c-0.7-1.3-1-2.8-1.3-3.4
	c0,0-0.8-2.9-0.5-3.5c0.9-1.4,1.7-1.4,1.7-2.8c-0.3-2.8-0.7-4.7,0.3-7.6c0.9-2-0.9-5.3-0.9-5.3c0.6-3.2,2-2.8,1.7-8
	c-0.2-2.1,1-4-0.6-5.9c0,0-0.9-1-0.6-1.4l1.2-2.2c0.3-1.4,0.2-3-0.5-4.7l-1-1.4l0.1-2.1c0.7-2,0.2-3.6,0.2-5.1
	c-0.5-3.9-5.2-12.6-5.2-12.6c-1.3-1.4-1.7-3.1-3-4.1c-0.9-0.5-2.1-0.6-2.2-0.9c-0.3-0.1-0.5-1.5-0.5-1.9c-0.9-1.6-2-2.8-3.9-3.6
	c0,0-2.7-1.5-3.9-1.6c-0.9-0.1-2-0.4-2.7-0.7l-1.3-1c-0.7-1.3-2-1.7-3.6-2.1c0,0-2-0.3-3.7-0.2c-1,0-2.1-0.3-3-0.1
	c-0.3,0.2-0.6,0.2-0.7,0.2l-2.2-0.8c-1.8-1-2.7-1.2-4-1c-2.3,0-3.1,1.7-4.6,3c-0.3,0.3-3.5,0.3-3.9,0.2c-0.9-0.1-1.4-0.4-2.7-0.2
	c-1.3,0-2.2,0.2-5,1.5c-1,0.4-3.2,0.4-3.2,0.4s-1.6,0.2-2.3,0.1c-1.4-0.3-3.8-0.8-4.9-0.8c-2,0-2.7,2.5-5.5,3.9
	c-0.7,0.6-2,0.4-2.9,0.9c-0.3,0.2-1,2.2-1.4,2.4c-3,2.2-3.7,5.2-6.2,4.8c-0.5,0-2.7,1.4-3,1.7c-2.1,1.9-3.5,4.2-3.5,4.2
	c-1.4,1.8-2.3,5-2.3,6.5c0,0.2-0.1,1.3-0.1,1.6c0,5,0.1,11,1.7,14.7c1.2,3,7.4,7.6,10.6,7.5c0.9,0,1.2-0.8,2.1-0.8
	c0.9,0,1.6-0.7,2.1,0.5c0,0,0.9,0.3,1.4,0.5c1.4,0.3,2.7,0.7,3.7,0.6c2.8-0.1,7.5-5.7,7.7-7.6c0.5-2.9,0.9-7.6,0.8-9
	c0-2.1-1.1-3.5-1.8-4.2c-0.7-0.8-1-0.8-1.2-2.1c0-1.6,1.4-2.3,1.5-2.5l4.7-1.6c2,0,6.1,3,7.5,1.4c0,0,1.3-0.4,1.7,0
	c2,1.4,1.3,2.3,3.6,2.2c1.3,0,3.8-0.8,5.8-2l2.1,0.1c1.3,0.7,0.5,1.4,1.8,1.7c1.4,0.3,3.4,0.6,4.7,0.8l2.7-0.6
	c3.7,1.6,3.6,6.8,3.9,9.7c0,1.4-1.3,8-1.6,11.1l-2,0.9c-1.3,1.4-3.5-0.8-4.3-0.8c-1.7,0-2.3,0.1-6.9,3.7l-2.4,0.9
	c-1.7,0.7-2,0.8-2.9,2.1c-0.3,0.2-2.4-1.3-2.4-1.3c-2.4-1.3-4.7,2-6.1,2c-4.7,0-4.6-1.5-7.3,1.7c0,0-5.8,0.3-6.5,0.6
	c-2.3,0.9-2.8-0.2-5.8,1.2c-2.9,1.4-2.3,3.5-3,3.8c0.2,0-1.8-0.8-1.8-0.8c-0.2,0-1,0.2-1.6,0.2c-1.7,0.2-5,3.3-5,3.3
	c-5.7,2.8-11.4,17.1-11.4,19.7c0,1.4,0.6,2.9,1.2,4.3c0.6,1-0.7,1.9-0.5,2.9c0,1,0.2,2.4,0.2,3.7c0.2,1.6,0.2,3,0.3,4.3
	c0,0,1.7,5.7,4.3,7l1.6,0.9c0.6,0.3,2.3,1.6,2.3,1.6c1.6,3,3.7,5.4,5.8,6.3c1.7,0.7,3-0.1,4.7,0.1c1.6,0.3,3.7,2.3,3.7,2.3
	c0.6,0.3,1.4,0.9,2.1,1.4c3.2,2.1,5.1,3.2,6.9,3.2c2,0,3.4-0.9,5-1.7c0.2-0.2,3.7-1.3,3.9-1.3l12.6-0.6c0.3,0,1,0,2,0.2
	c0.9,0.2,2,0.3,2.8,0.3c2.4,0,4-0.9,5-1.3l1.6-1.3c0.7-0.9,2.1-2.1,2.7-2.3l1.6-0.4c1.7-0.3,4-0.7,5.8-2.4v0.2
	c1.4-1.3,2.3-2.7,2.7-3.4c0,0,3,0.7,4.4,1.6l1.7,2.1c0.7,1,1.6,2.4,2.8,3.4c3.4,2.1,5.4,3.2,8.1,3.2c1,0,5.4-0.2,6-0.3l2.7-0.7
	c1.6,0.7,1.7,1.3,2.8,1.3c1.5,0,3.5-1.6,4.6-2.5c1.1-0.1,2.3-0.4,3.2-0.8c0.7-0.3,2.1-0.7,2.4-0.9l2.4,1c0.7,1.4,2.3,2,3.2,2
	c1-0.2,1.4,0.2,2.7-0.3c0.6-0.2,2.8-0.9,3.4-0.3c2.7,1.4,4,2.3,5.7,2.3c1,0,2.1-0.6,4.3-1.3c0.7-0.3,2.1-0.9,2.4-1c0,0,1,0.6,3,0.7
	c6.2,0.7,8.3,0.9,9,0.9c1,0,2.1-0.2,3.7-0.7c0.3-0.2,1.7-0.6,1.7-0.6s4,0.7,5.7,0.9c3.7,0.9,3.2,1.3,3.9,1.3c0.9,0,2.1-0.6,4.7-1.6
	c1-0.3,4.7-0.9,4.7-0.9c0.9,0.3,2,0.7,3.2,0.7c1.6,0,3-0.9,4.3-2.3c0.2-0.2,0.6-0.6,0.7-0.9l1.3,0.6c0.7,1.4,2.4,2,3.4,2
	c1-0.2,2.4,0.2,3.7-0.3c0,0,1.6-0.9,2.1-0.3c2.7,1.4,4,2.3,5.7,2.3c1,0,2.1-0.6,4.3-1.3c0.7-0.3,2.4-0.9,2.8-1c0,0,4,0.6,6,0.7
	c6.2,0.7,8.3,0.9,9,0.9c1,0,2.1-0.2,3.7-0.7c0.3-0.2,1.7-0.6,1.7-0.6s4,0.7,5.7,0.9c3.7,0.9,3.2,1.3,3.9,1.3c0.9,0,2.1-0.6,4.7-1.6
	c1-0.3,4.7-0.9,4.7-0.9c0.9,0.3,2,0.7,3.2,0.7c1.6,0,3-0.9,4.3-2.3c2.8-2.3,4.9-7.2,4.9-9.5c0-3.9-1-6.7-3.2-8.8
	c-3.2-3.2-3.7-2.1-6.2-3.4l-5.7,0.2c-1.4,0-5.1,0.7-7.6,1.4c0,0-2.1,0.9-2.8,1.3c-0.3,0.2-2.7-0.6-2.7-0.6c-2-0.7-1.7-1.3-2.8-1.3
	h-3.2l-2.4-4.3c-1-4.3,0.3-6.6,0.2-8l0.7-5.3c1-3.6,1.6-5.1,1.6-6.2c0-2.1-0.7-3.6-1.4-4.3c-0.3-1-0.9-2,0.3-7.3
	c0.3-1.6-0.2-4.7-0.2-4.7c0-0.3-0.6-2-0.7-2.3c-0.6-1-1.3-3-1.4-3.6l1-2.8c0.9-2.7,1.6-4,1.6-5.4c0-2-0.7-3.2-1.6-4.6
	c-0.7-1.7-1.6-3.9-1.6-8.7c-0.2-0.9,0.2-6.6,0-11.7l0.2-7.4c0,0,0.6-1.3,1-2c0.6-1.3,1.3-2.7,1.6-4.4c0.3-2,0.2-4,0-5.8
	c-0.2-0.9-0.2-2.4-0.2-2.4c0.2-1.4,0.9-3.2,1.7-4.7c1.6-4.6,2.3-6.2,2.3-7.6c0-1.4-0.9-3-2.7-5.4c-0.3-0.7-0.9-1.7-1-2.1
	c0,0-0.7-3.7-1.3-6c-0.9-3.4-1.7-6.7-2.1-9.7l-0.2-1l-0.7-0.7c-0.6-0.3-3.6-3.6-6.4-3.6c-2.1,0.2-2.7,0-4.4,1.6H229
	c0,0-0.9-1.6-3.2-1.6c-1.7,0-4-0.3-4.7,0.3l-4.3,0.3c-3-1.7-3.2-2-4.7-2c-1,0-1.7,0.3-2.4,0.6l-3-1.4c-2.7-1.6-3.9-2.1-5.1-2.1
	c-7.3,0.2-12.6,13.1-12.4,18.7c0,8.3,5,11,8.8,13.3c0.6,0,3-0.3,3.5,0c0.3,0.2,0.8,2.3,1.2,2.9c1.3,1.4,2.4,0.9,3.6,1
	c0,0,0.1-0.5,1.4-0.8c0,0,3.4,2.1,5.1,2.1c1.7,0,2-1.4,3.4-2.4l1,2.1c0.3,1.3,0.6,2.7,1,4c0,0,1.4,3.6,2.7,5.3l0.9,2.3
	c-0.6,1-2.2,2.1-2.2,3.5c0,0.9,1.2,2.3,1.4,3.2c0.2,1,0.2,2.7,0.2,3.4l-0.9,2.3c-0.9,1.3-1.4,2.7-1.4,4c0,2.8,1.7,4.6,2.8,5.8
	c0.9,1,1.3,1.4,1.3,2.3c0,0-0.6,1.6-0.9,2.4c-0.3,1.3-0.9,2.4-0.9,3.7c-0.7,3-0.2,6.2,0.3,8.4c0,0.6,0.9,4.3,0.9,4.6l-0.3,8.1
	c0,1.6-0.2,3-0.2,4.4c-0.2,1.5-0.4,2.9-0.3,4.4c-0.3,2.4-0.7,5-0.7,7.4l2.3,2.2c0.3,0.7-1.4,2.9-1.4,3.2c0,0.6,0.6,1.7,0,2.7
	c-0.4,1.2-0.7,2.4-0.9,3.7c0,2.1-0.2,4.3-0.3,6.2c-0.2,1.4-0.3,2.8-0.3,3.7c0,0.9-1.3,2-1.3,2.8c-0.2,1.3-0.3,3.6-0.9,4l-3-1
	c-3-1-3.7-0.3-4.7-0.3c-0.6,0-2.3-0.7-3.2-0.6c-2.4,0.3-4.3,0.9-5,0.9c0,0-0.7-0.2-1.4-0.6c-2.1-0.3-3-0.3-4-0.3
	c-3.3,0-5.8,1.7-7.4,4c-0.3,0-0.7,0-1,0.2c0,0-2.1,0.9-2.8,1.3c-0.3,0.2-2.7-0.6-2.7-0.6c-2-0.7-1.7-1.3-2.8-1.3h-3.2l-1.4-4.3
	c-1.3-4.3-0.7-6.6-0.9-8l0.7-5.3c1-3.6,1.6-5.1,1.6-6.2c0-2.1-0.7-3.6-1.3-4.3c-0.6-1-1-2,0.2-7.3c0.3-1.6-0.2-4.7-0.2-4.7
	c0-0.3-0.6-2-0.7-2.3c-0.6-1-1.3-3-1.4-3.6l1.3-2.8c0.7-2.7,1.4-4,1.4-5.4c0-2-0.7-3.2-1.4-4.6c-0.9-1.7-1.7-3.9-1.7-8.7
	c0-0.9,0.2-6.6,0.2-11.7v-7.4c0,0,0.6-1.3,1-2c0.6-1.3,1.3-2.7,1.6-4.4c0.3-2,0.2-4,0-5.8c-0.2-0.9-0.2-2.4-0.2-2.4
	c0.2-1.4,0.9-3.2,1.7-4.7c1.6-4.6,2.3-6.2,2.3-7.6c0-1.4-0.9-3-2.4-5.4c-0.6-0.7-1-1.7-1.3-2.1c0,0-0.7-3.7-1.3-6
	c-0.9-3.4-1.7-6.7-2.1-9.7l-0.2-1l-0.7-0.7c-0.6-0.3-3.6-3.6-6.4-3.6c-2.1,0.2-2.7,0-4.4,1.6h-2.3c0,0-0.9-1.6-3.2-1.6
	c-1.7,0-4-0.3-4.7,0.3l-4.3,0.3c-3-1.7-4.4-2-6-2c-1,0-2,0.3-2.7,0.6l-3.2-1.4c-2.8-1.6-4-2.1-5.3-2.1c-7.7,0.2-15.7,13.1-15.6,18.7
	c0.2,8.3,5.3,11,9.4,13.3c0.6,0,3.1,1.2,3.7,1.5c0.3,0.2,0.3,0.9,0.7,1.5c1.3,1.4,2.3,1.5,4.6,1.5c2,0,2.8-1.7,4-2.1
	c0,0,3.1,2.8,5.1,2.8c1.7,0,3-1.4,4.4-2.4l1,2.1c0.3,1.3,0.6,2.7,1,4c0,0,1.4,3.6,2.7,5.3l0.9,2.3c-0.6,1-2.1,2.1-2.1,3.5
	c0,0.9,1,2.3,1.3,3.2c0.2,1,0.3,2.7,0.2,3.4l-0.9,2.3c-0.9,1.3-1.4,2.7-1.4,4c0.2,2.8,1.7,4.6,2.8,5.8c0.9,1,1.3,1.4,1.3,2.3
	c0,0-0.6,1.6-0.9,2.4c-0.3,1.3-0.7,2.4-0.9,3.7c-0.7,3-0.2,6.2,0.6,8.4c0,0.6,0.7,4.3,0.7,4.6l-0.3,8.1c0,1.6-0.2,3-0.2,4.4
	c-0.2,1.5-0.4,2.9-0.3,4.4c-0.3,2.4-0.7,5-0.7,7.4l2,2.2c0.3,0.7-1.2,2.9-1.2,3.2c0,0.6,0.6,1.7,0,2.7c-0.3,1-0.7,2.3-0.7,3.7
	c-0.2,2.1-0.3,4.3-0.6,6.2c-0.2,1.4-0.3,2.8-0.2,3.7c-0.2,0.9-0.3,1.8-0.3,2.8c-0.2,1.3-1.4,3.6-2,4l-3.2-1c-2.4-1-3-0.3-3.9-0.3
	c-0.6,0-2-0.7-2.7-0.6c-2,0.3-1.6,0.9-2,0.9c0,0-0.7-0.2-1.4-0.6C133,378.3,132.5,378.2,131.9,378.1L131.9,378.1z M585.3,308.7
	c2.9,1.4,3.2,5.2,3.2,8c0,2.8-1.6,4-3,6.7c-1.4,2.7-3.9,1.5-5.3,2.2c-5,2.1-10.6,3.1-12.8,3.1c-1.4,0-8.1-2.8-9.6-2.8
	c-1.7,0-4,1.4-5.8,1.4c-1.4,0-4.4-2.1-6-2.1c-1.7,0-6.2,1.3-8,1.3c-4,0-5-1.4-5-4.3c0-2.9,2.7-9.4,7.6-10.7c1.4-0.6,4.4,0.6,6.2-0.9
	c0.7-0.9,1.3-4.4,3.2-5.3c4.4-2.8,14-5.4,15.6-5.4c2,0,4.6,2.1,6.6,3.6c1.4,0.3,3.2-0.2,4.4,0.3C579.1,305,582.8,307.5,585.3,308.7
	L585.3,308.7z M94,358.8l-0.9,8.7c0,1.7-4.3,2.7-6.2,4.4c-1.4,0.7-4.6,3-4.6,3c-0.9,0.6-2.4,1.6-6.6,8.7c-0.2,0.6-1.4,1.4-1.7,1.4
	c-0.2,0-1-0.2-1.7-0.3c-1.4-0.2-4-0.4-5-0.4c-1,0-3,0.6-6,1.4c-0.9,0.2-1.5,1.4-2.1,1.6c-0.2-0.4-3.1-0.9-3.5-1.2
	c-2.7-1.7-1.4-1.7-3.6-1.7l-3.6-0.8c-2-0.9-2.3-2.9-4.2-5.2c-0.6-0.6,0.1-2.5-0.6-3c-0.9-0.7,0.7-1.7,0.7-3c0,0-1-1.8,1.3-4.1
	c1.6-2.3,2-3.4,2-3.4l2.8,0.1c0,0,1.7-1.5,2.3-1.7l4.5-1.6c1.3-0.9,2-1.6,2.7-2.1c0.3,0,1.3-0.4,3.2-0.4c1.4,0,2.8-1.6,4.4-1.4
	c0,0,5,0.6,7.1,0.6c2.1,0,8.3-1.6,13.8-3.7c0.6-0.3,1.7-0.6,2.1-0.7c0.6,0.2,1-0.4,1-0.2c0.9,0.2,1.4-0.2,1.6,0.3
	C93,354.1,93.7,356.2,94,358.8"/>
</svg>
